<?xml version="1.0" encoding="UTF-8"?>
<svg xmlns="http://www.w3.org/2000/svg" version="1.1" viewBox="0 0 150 40">
  <!-- Generator: Adobe Illustrator 29.6.1, SVG Export Plug-In . SVG Version: 2.1.1 Build 9)  -->
  <defs>
    <style>
      .st0 {
        isolation: isolate;
      }

      .st1 {
        mix-blend-mode: multiply;
      }
    </style>
  </defs>
  <g class="st0">
    <g id="Layer_1">
      <path d="M69.75,29.27l-.08-.03-.87,2.48-5.07-1.77,9.68-27.67,5.26,1.84-3.58,10.22.12.04c1.67-1.28,3.82-1.97,6.56-1,4.99,1.75,7.05,7.29,4.88,13.48-2.25,6.42-7.08,9.3-12.07,7.55-2.79-.98-4.34-2.87-4.85-5.13ZM81.33,24.98c1.29-3.68.71-6.75-2.23-7.77-3.33-1.16-5.5,1.07-6.79,4.75-1.27,3.64-.27,6.6,2.67,7.63,2.71.95,5-.77,6.34-4.6Z"/>
      <path d="M104.13,31.48h-.08c-1.07,1.6-2.58,2.83-6.19,2.83-4.31,0-7.34-2.25-7.34-6.44,0-4.63,3.77-6.11,8.45-6.77,3.48-.49,5.08-.78,5.08-2.38s-1.19-2.5-3.53-2.5c-2.62,0-3.9.94-4.06,2.95h-4.96c.16-3.69,2.91-6.93,9.06-6.93s8.86,2.83,8.86,7.75v10.7c0,1.6.25,2.54.74,2.91v.21h-5.37c-.33-.41-.53-1.39-.66-2.34ZM104.17,26.39v-3.16c-.98.57-2.5.9-3.9,1.23-2.91.66-4.35,1.31-4.35,3.28s1.31,2.67,3.28,2.67c3.2,0,4.96-1.97,4.96-4.02Z"/>
      <path d="M118.31,16.14h.12c1.27-2.38,2.71-3.61,5.17-3.61.62,0,.98.04,1.31.16v4.88h-.12c-3.65-.37-6.27,1.56-6.27,5.99v10.25h-5.58V12.78h5.37v3.36Z"/>
      <path d="M126.19,23.32c0-6.56,3.73-11.11,8.98-11.11,2.95,0,4.8,1.35,5.94,3.12h.12V4.5h5.58v29.32h-5.37v-2.75h-.08c-1.23,2.01-3.32,3.36-6.27,3.36-5.29,0-8.9-4.3-8.9-11.11ZM141.36,23.44c0-4.02-1.31-6.72-4.88-6.72-3.08,0-4.63,2.71-4.63,6.6s1.6,6.44,4.47,6.44c3.32,0,5.04-2.46,5.04-6.31Z"/>
      <g class="st1">
        <path d="M9.47,4.35v14.55l6.8-7.07h6.38l-7.41,7.22,8.25,12.43h-6.54l-5.4-8.78-2.09,2.01v6.76h-5.4V4.35h5.4Z"/>
        <path d="M31.17,26.77c.81.79,1.98,1.18,3.5,1.18,1.09,0,2.03-.27,2.81-.82.78-.54,1.27-1.12,1.44-1.73h4.75c-.76,2.36-1.93,4.04-3.5,5.05-1.57,1.01-3.47,1.52-5.7,1.52-1.55,0-2.94-.25-4.18-.74-1.24-.49-2.29-1.2-3.15-2.11s-1.53-2-1.99-3.27c-.47-1.27-.7-2.66-.7-4.18s.24-2.84.72-4.1c.48-1.27,1.16-2.36,2.05-3.29.89-.92,1.94-1.65,3.17-2.19,1.23-.53,2.59-.8,4.08-.8,1.67,0,3.13.32,4.37.97s2.26,1.51,3.06,2.6c.8,1.09,1.37,2.33,1.73,3.72.35,1.39.48,2.85.38,4.37h-14.17c.08,1.75.52,3.01,1.33,3.8ZM37.27,16.43c-.65-.71-1.63-1.06-2.94-1.06-.86,0-1.58.15-2.15.44-.57.29-1.03.65-1.37,1.08-.34.43-.58.89-.72,1.37-.14.48-.22.91-.25,1.29h8.78c-.25-1.37-.7-2.41-1.35-3.12Z"/>
        <path d="M54.46,37.33c-1.04.68-2.48,1.03-4.33,1.03-.56,0-1.11-.02-1.65-.06-.55-.04-1.1-.08-1.65-.13v-4.45c.51.05,1.03.1,1.56.15.53.05,1.06.06,1.6.04.71-.08,1.23-.36,1.58-.84.34-.48.51-1.01.51-1.6,0-.43-.08-.84-.23-1.22l-6.88-18.43h5.74l4.45,13.45h.08l4.29-13.45h5.59l-8.21,22.08c-.58,1.6-1.39,2.74-2.43,3.42Z"/>
      </g>
    </g>
  </g>
</svg>