<?xml version="1.0" encoding="UTF-8"?><svg id="Layer_1" xmlns="http://www.w3.org/2000/svg" width="24" height="24" viewBox="0 0 24 24"><defs><style>.cls-1{fill:none;stroke:#000;stroke-miterlimit:10;stroke-width:1.5px;}</style></defs><path d="M12,4.42c-4.19,0-7.58,3.39-7.58,7.58s3.39,7.58,7.58,7.58,7.58-3.39,7.58-7.58-3.39-7.58-7.58-7.58ZM15.71,12.71l-4,4c-.2.19-.45.29-.71.29s-.51-.1-.71-.29c-.39-.39-.39-1.03,0-1.42l2.3-2.29h-3.59c-.4,0-.77-.24-.92-.62-.16-.37-.07-.8.21-1.09l4-4c.39-.39,1.03-.39,1.42,0,.39.39.39,1.03,0,1.42l-2.3,2.29h3.59c.4,0,.77.24.92.62.16.37.07.8-.21,1.09Z"/><circle class="cls-1" cx="12" cy="12" r="10.29" transform="translate(-1.77 21.92) rotate(-80.78)"/></svg>